<svg id="Layer_1" height="512" viewBox="0 0 512 512" width="512" xmlns="http://www.w3.org/2000/svg"><g><g><path d="m192 160h112c8.837 0 16-7.163 16-16v-72h-128z" fill="#463c4b"/></g><g><path d="m192 16c-61.856 0-112 50.144-112 112v192h112v-32h64c26.51 0 48-21.49 48-48v-112c0-61.856-50.144-112-112-112z" fill="#fab991"/></g><g><path d="m192 288h-80c-17.673 0-32 14.327-32 32h112z" fill="#f0915a"/></g><g><path d="m264 16h-88c-61.856 0-112 50.144-112 112v176c0 8.836 7.163 16 16 16h64c8.837 0 16-7.164 16-16v-144c17.673 0 32-14.327 32-32h72c30.928 0 56-25.072 56-56 0-30.928-25.072-56-56-56z" fill="#463c4b"/></g><g><path d="m272 240h-32c0 8.837 7.163 16 16 16 8.837 0 16-7.163 16-16z" fill="#463c4b"/></g><g><path d="m266.667 224c-8.837 0-16-7.163-16-16v-34.667c17.673 0 32 14.327 32 32v2.667c0 8.837-7.164 16-16 16z" fill="#f0915a"/></g><g><path d="m240 320h-48v-32h64v16c0 8.837-7.163 16-16 16z" fill="#463c4b"/></g><g><circle cx="230.667" cy="160" fill="#463c4b" r="12"/></g><g><circle cx="270.667" cy="160" fill="#463c4b" r="12"/></g><g><path d="m256 320h-176c-26.51 0-48 21.49-48 48v128h272v-128c0-26.51-21.49-48-48-48z" fill="#23aae6"/></g><g><path d="m80 320c-26.51 0-48 21.49-48 48v96h96v-96c0-26.51-21.49-48-48-48z" fill="#5ad7ff"/></g><g><path d="m144 320c26.51 0 48 21.49 48 48v8c0 13.255 10.745 24 24 24 13.255 0 24-10.745 24-24v-8c0-26.51-21.49-48-48-48z" fill="#f0915a"/></g><g><path d="m32 464h96v32h-96z" fill="#fab991"/></g><g><g><path d="m472.1 496h-208v-128c0-57.438 46.562-104 104-104 57.438 0 104 46.562 104 104z" fill="#ff4646"/></g><g><path d="m368 264c-56.311.053-102.761 45.585-103.879 101.885-.068 3.411.029 6.785.282 10.115h-.303v120c0-13.255 10.745-24 24-24h78.746c57.521 0 105.085-46.167 105.254-103.688.169-57.614-46.513-104.366-104.1-104.312z" fill="#cd3232"/></g><g><path d="m288.1 392h-8c-13.255 0-24-10.745-24-24 0-13.255 10.745-24 24-24h8z" fill="#f0915a"/></g><g><path d="m448.1 392h8c13.255 0 24-10.745 24-24 0-13.255-10.745-24-24-24h-8z" fill="#f0915a"/></g><g><circle cx="368.1" cy="368" fill="#fab991" r="88"/></g><g><path d="m368.1 324c-2.209 0-4-1.791-4-4s1.791-4 4-4c6.617 0 12-5.383 12-12s-5.383-12-12-12c-2.209 0-4-1.791-4-4s1.791-4 4-4c11.028 0 20 8.972 20 20s-8.973 20-20 20z" fill="#faa019"/></g><g><path d="m336.1 372c-11.028 0-20-8.972-20-20 0-2.209 1.791-4 4-4s4 1.791 4 4c0 6.617 5.383 12 12 12s12-5.383 12-12c0-2.209 1.791-4 4-4s4 1.791 4 4c0 11.028-8.973 20-20 20z" fill="#463c4b"/></g><g><path d="m400.1 372c-11.028 0-20-8.972-20-20 0-2.209 1.791-4 4-4s4 1.791 4 4c0 6.617 5.383 12 12 12s12-5.383 12-12c0-2.209 1.791-4 4-4s4 1.791 4 4c0 11.028-8.973 20-20 20z" fill="#463c4b"/></g></g><g><path d="m464 448c-8.837 0-16 7.163-16 16v32h32v-32c0-8.837-7.163-16-16-16z" fill="#fab991"/></g></g></svg>